# xmcd
#
# Track frame offsets:
#	150
#	10168
#	21301
#	33380
#	46156
#	58499
#	68572
#	78909
#	89636
#	102538
#	114090
#	126618
#	139371
#	149599
#	160939
#	169968
#	179351
#	189800
#	199585
#	213574
#	223349
#	232842
#	243334
#	252355
#	260418
#	271513
#	281730
#	292602
#	303688
#	314930
#	328627
#	339560
#
# Disc length: 4680 seconds
#
# Revision: 0
# Processed by: cddbd v1.5.2PL0 Copyright (c) Steve Scherf et al.
# Submitted via: audiograbber 1.83.01
#
DISCID=ec124620
DTITLE=Johnny Cash - Singles 1954 - 1963
DYEAR=2012
DGENRE=Rock and Roll
TTITLE0=Hey Porter!
TTITLE1=Cry! Cry! Cry!
TTITLE2=So Doggone Lonesome
TTITLE3=Folsom Prison Blues
TTITLE4=I Walk The Line
TTITLE5=Get Rhythm
TTITLE6=There You Go
TTITLE7=Train Of Love
TTITLE8=Next In Line
TTITLE9=Don't Make Me Go
TTITLE10=Home Of The Blues
TTITLE11=Give My Love To Rose
TTITLE12=Ballad Of A Teenage Dream
TTITLE13=Big River
TTITLE14=Guess Things Happen This Way
TTITLE15=Come In Stranger
TTITLE16=The Way Of A Woman In Love
TTITLE17=What Do I Care
TTITLE18=Don't Take Your Guns To Town
TTITLE19=It's Just About Time
TTITLE20=Luther Played The Boogie
TTITLE21=Frankie's Man Johnnie
TTITLE22=Katy Too
TTITLE23=Five Feet High And Rising
TTITLE24=Goodbye Little Darlin'
TTITLE25=Straight A's In Love
TTITLE26=I Love You Because
TTITLE27=Mean Eyed Cat
TTITLE28=Oh, Lonesome Me
TTITLE29=Tennessee Flat-Top Box
TTITLE30=In The Jailhouse Now
TTITLE31=Ring Of Fire
EXTD=
EXTT0=
EXTT1=
EXTT2=
EXTT3=
EXTT4=
EXTT5=
EXTT6=
EXTT7=
EXTT8=
EXTT9=
EXTT10=
EXTT11=
EXTT12=
EXTT13=
EXTT14=
EXTT15=
EXTT16=
EXTT17=
EXTT18=
EXTT19=
EXTT20=
EXTT21=
EXTT22=
EXTT23=
EXTT24=
EXTT25=
EXTT26=
EXTT27=
EXTT28=
EXTT29=
EXTT30=
EXTT31=
PLAYORDER=
